<svg width="92" height="41" xmlns="http://www.w3.org/2000/svg"><g fill="none"><path d="M89.95 11.537c-1.496.02-2.993 0-4.49 0-1.026 0-1.214.134-1.397 1.13-.46 2.548-.897 5.088-1.346 7.65-.207 1.155-.383 2.32-.659 3.457a1.595 1.595 0 01-1.936 1.265c-.599-.131-.85-.718-.71-1.747.15-1.084.32-2.165.51-3.244.433-2.5.897-4.992 1.328-7.482.099-.574 0-1.023-.739-1.02h-6.509c-.515 0-.868.203-.955.763-.095.598-.212 1.197-.329 1.81-.3 1.577-.3 1.577 1.128 2.131-.245 1.386-.532 2.717-.706 4.064-.182 1.428-.598 2.924-.81 4.348-.27 1.892-.749 3.792 1.364 4.819 2.2 1.068 4.489 1.155 6.629.134.164-.094.341-.161.526-.2-.17.921.165 1.236-.108 2.145a5.087 5.087 0 01-.778 1.539 6.509 6.509 0 01-2.932 2.166 7.925 7.925 0 01-2.85.518c-2.528 0-5.263-1.233-6.344-3.639a4.59 4.59 0 01-.404-1.676c.006-1.033.067-2.065.183-3.091v-.051c0-.11.03-.222.042-.332l.161-.967h-.027c.036-.236.075-.476.114-.706.225-1.285.452-2.567.68-3.846.05-.284.101-.565.149-.847.297-1.656.597-3.31.898-4.965.5-2.807 1.715-9.486 2.196-12.296.186-1.09.054-1.233-1.02-1.233h-5.704c-.973 0-1.227.206-1.413 1.152-.107.55-.164 1.11-.269 1.66-.272 1.413-.27 1.431 1.074 1.862-.203 1.197-1.122 6.306-1.334 7.533a1735.07 1735.07 0 01-.871 4.953l-.018-.033-.189 1.02c-.478 2.616-1.394 5.59-1.451 8.41a9.976 9.976 0 00-.045.897c0 6.147 6.048 11.13 13.506 11.13 3.289.038 6.5-.997 9.148-2.948h.024l.054-.048a11.743 11.743 0 002.909-3.238c.369-.612.67-1.262.898-1.939.245-.74.191-.883.386-1.634a31.62 31.62 0 00.485-2.253c.299-1.536.5-3.083.772-4.621.676-3.84 1.337-7.68 2.026-11.513.116-.742-.14-1-.847-.987z" fill="#FFD100"/><path d="M26.658 5.195c-.631-.099-1.268-.14-1.906-.21-3.034.049-3.48.423-3.783 3.212-.098.898.234 1.451 1.117 1.496 1.195.08 2.395.08 3.59 0a1.53 1.53 0 001.497-1.137c.185-.689.328-1.389.428-2.095a1.035 1.035 0 00-.943-1.266z" fill="#59595C"/><path d="M42.876 17.277c-.144.53-.51.682-1.054.577-2.181-.422-3.591.518-4.001 2.693a931.606 931.606 0 00-2.047 11.423c-.129.74-.485 1.057-1.242 1.045-1.58-.03-3.16-.021-4.74 0-.65 0-.865-.252-.751-.898.897-4.992 1.756-9.986 2.642-14.963.084-.479.099-.853-.548-.877a.667.667 0 01-.697-.862c.12-.98.3-1.95.536-2.909a1.23 1.23 0 01.916-.685c2.005-.063 4.016-.027 6.024-.036.541 0 .778.257.772.787V14.5c.254-.38.428-.64.598-.897 1.03-1.52 2.526-1.958 4.262-1.85.524.033.712.3.58.808-.412 1.577-.82 3.151-1.25 4.717zm-16.858-5.483h-2.9c-.87 0-1.748-.036-2.618 0h-3.592a1.918 1.918 0 00-.236 0h-1.897a1.02 1.02 0 01-.042-.221v-.018c0-.045.024-.087.036-.132.075-.383.152-.766.236-1.15.207-.927 1.039-4.153 1.796-4.82a2.798 2.798 0 011.795-.599c.569-.015 1.23.129 1.413-.694.2-.898.416-1.817.598-2.73.117-.544-.095-.831-.673-.954a12.44 12.44 0 00-5.42-.027c-2.19.506-3.669 1.9-4.489 3.965a9.117 9.117 0 00-.21.566 64.641 64.641 0 00-1.795 6.455c-.104.254-.275.35-.62.362-1.582.054-1.582.069-1.882 1.598-.056.3-.107.578-.158.868-.3 1.724-.3 1.724 1.46 2.026.096.027.19.06.282.099a7.323 7.323 0 01-.057.772c-.036.206-.075.41-.111.616h.03l-.272 1.637c-.707 3.954-1.859 9.592-2.556 13.545-.03.184-.073.366-.126.545-.362 1.197-1.14 1.795-2.544 1.831-.523 0-.838.204-.954.632-.02.067-.034.136-.042.206-.138 1.033-.228 2.071-.365 3.103-.105.796.281 1.15 1.017 1.197.931.075 1.865.207 2.795.189 3.31-.063 5.33-1.427 6.156-4.459a9.64 9.64 0 00.156-.643c.25-1.197.488-2.406.715-3.625l.045-.239c.452-2.37 1.32-6.431 1.742-8.807.224-1.275.724-4.028 1.083-6.036.114-.64 1.062-.632 1.547-.683a20.823 20.823 0 014.36.093l-.191 1.287-.2 1.353v.032c-.506 2.954-1.03 5.908-1.497 8.868-.37 2.358.455 4.19 2.188 4.967 1.496.67 3.076.656 4.647.467.3-.036.71-.488.808-.823a26.71 26.71 0 00.737-3.354.99.99 0 00-.473-.832c-1.039-.383-1.221-.566-1.039-1.664.431-2.58.898-5.154 1.341-7.73.341-1.943.694-3.89 1.023-5.833.168-1.071.04-1.203-1.047-1.206zm23.304 13.207c-.485 2.292.066 3.049 2.412 3.028a23.124 23.124 0 003.573-.353c.718-.123.94.126.946.763v2.586c0 1.592 0 1.643-1.536 1.93-2.298.428-4.608.599-6.93.09-2.921-.623-4.657-2.394-4.887-5.351a22.029 22.029 0 012.22-11.671c2.463-4.98 8.035-5.154 11.44-3.568 1.868.868 2.778 2.451 2.841 4.49.105 3.438-1.64 5.74-5.03 6.553a38.488 38.488 0 01-4.1.668c-.56.074-.83.266-.95.835zm.443-5.004l.242.194a4.537 4.537 0 003.292-1.286c.65-.653.733-1.817.248-2.257-.484-.44-1.676-.3-2.205.46-.632.893-1.066 1.922-1.577 2.889z" fill="#59595C"/></g></svg>